<svg xmlns="http://www.w3.org/2000/svg" height="2118.52" width="3456">
  <defs>
  <style type="text/css">@import url('https://fonts.googleapis.com/css?family=Roboto:400,100,100italic,300,300italic,400italic,500,500italic,700,700italic,900,900italic');</style>
    <clipPath id="a" clipPathUnits="userSpaceOnUse">
      <path d="M0 1588.89h2592V0H0z"/>
    </clipPath>
  </defs>
  <text transform="matrix(1.33333 0 0 1.33333 973.16 1111.92)" font-weight="400" font-size="239.18" font-family= "Impact, fantasy"  fill="#793000 ">
    <tspan y="0" x="0 131.78773 262.37958 392.97144 525.23755 567.33307 690.98871 801.25031 932.08136 1027.2747">GOOD STUFF</tspan>
  </text>
  <text transform="matrix(1.33333 0 0 .86152 979.54 1299.56)" font-weight="800" font-size="107.97" font-family="monospace" fill="#28430A">
    <tspan y="0" x="0 64.779419 129.55884 194.33826 259.11768 323.89709 388.67651 453.45593 518.23535 583.01477 647.79419 712.57361 777.35303 842.13245 906.91187 971.69128 1036.4707">C R E A T I O N S</tspan>
  </text>
  <g clip-path="url(#a)" transform="matrix(1.33333 0 0 -1.33333 0 2118.52)">
    <path d="M1871.04 570.33a1 1 0 10-2 0 1 1 0 002 0M1865.76 544.97a2.18 2.18 0 10-4.35 0 2.18 2.18 0 004.35 0M1860.35 521.99a3.15 3.15 0 10-6.29 0 3.15 3.15 0 006.3 0M1855.07 499.43a4.05 4.05 0 10-8.1 0 4.05 4.05 0 008.1 0M1845.94 476.44a3.96 3.96 0 10-7.92 0 3.96 3.96 0 007.92 0M1837.17 451.27a4.86 4.86 0 10-9.72 0 4.86 4.86 0 009.72 0M1829.72 429.82a5.98 5.98 0 10-11.96 0 5.98 5.98 0 0011.96 0M1821.67 408.35a7.29 7.29 0 10-14.57 0 7.29 7.29 0 0014.57 0M1810.02 385.48a6.86 6.86 0 10-13.71 0 6.86 6.86 0 0013.71 0M1800.44 364.63a8.83 8.83 0 10-17.67 0 8.83 8.83 0 0017.67 0M1787.4 341.85a9.5 9.5 0 10-19 0 9.5 9.5 0 0019 0M1771.04 320.2a9.78 9.78 0 10-19.56 0 9.78 9.78 0 0019.56 0M1755.83 298.77a10.03 10.03 0 10-20.05 0 10.03 10.03 0 0020.05 0M1739.65 280.6a9.78 9.78 0 10-19.56 0 9.78 9.78 0 0019.56 0M1722.65 260.7a8.77 8.77 0 10-17.54 0 8.77 8.77 0 0017.54 0M1707.57 244.27a8.99 8.99 0 10-17.98 0 8.99 8.99 0 0017.98 0M1691 227.4a9.13 9.13 0 10-18.24 0 9.13 9.13 0 0018.25 0M1672.76 211.23a8.49 8.49 0 10-16.98 0 8.49 8.49 0 0016.98 0M1653.84 196.11a7.91 7.91 0 10-15.83 0 7.91 7.91 0 0015.83 0M1633.97 179.33a6.4 6.4 0 10-12.82 0 6.4 6.4 0 0012.82 0M1610.63 165.65a5.26 5.26 0 10-10.52 0 5.26 5.26 0 0010.52 0M1589.9 153.07a3.69 3.69 0 10-7.38 0 3.69 3.69 0 007.38 0M1568.83 143.63a3.93 3.93 0 10-7.86 0 3.93 3.93 0 007.86 0M1551.22 127.71a4.1 4.1 0 10-8.21 0 4.1 4.1 0 008.2 0M1525.76 115.88a2.92 2.92 0 10-5.85 0 2.92 2.92 0 005.85 0M1504.23 104.57a2.1 2.1 0 10-4.22 0 2.1 2.1 0 004.22 0M1481.61 94.56a2.57 2.57 0 10-5.14 0 2.57 2.57 0 005.14 0M1918.01 753.7a1 1 0 10-1.91-.6 1 1 0 001.91.6M1920.55 727.93a2.17 2.17 0 10-4.15-1.3 2.17 2.17 0 004.15 1.3M1922.26 704.38a3.15 3.15 0 10-6-1.88 3.15 3.15 0 006 1.88M1923.96 681.27a4.05 4.05 0 10-7.73-2.42 4.05 4.05 0 007.73 2.42M1922.13 656.6a3.96 3.96 0 10-7.56-2.36 3.96 3.96 0 007.56 2.37M1921.28 629.96a4.86 4.86 0 10-9.28-2.9 4.86 4.86 0 009.28 2.9M1920.58 607.27a5.98 5.98 0 10-11.4-3.57 5.98 5.98 0 0011.4 3.57M1919.32 584.37a7.29 7.29 0 10-13.9-4.35 7.29 7.29 0 0013.9 4.35M1915.03 559.06a6.86 6.86 0 10-13.08-4.1 6.86 6.86 0 0013.08 4.1M1912.12 536.3a8.83 8.83 0 10-16.86-5.27 8.83 8.83 0 0016.86 5.28M1906.48 510.67a9.5 9.5 0 10-18.13-5.68 9.5 9.5 0 0018.13 5.68M1897.35 485.11a9.78 9.78 0 10-18.67-5.85 9.78 9.78 0 0018.67 5.85M1889.24 460.13a10.03 10.03 0 10-19.14-6 10.03 10.03 0 0019.14 6M1879.23 437.96a9.78 9.78 0 10-18.67-5.85 9.78 9.78 0 0018.67 5.85M1868.95 413.88a8.77 8.77 0 10-16.73-5.24 8.77 8.77 0 0016.73 5.24M1859.47 393.69a8.99 8.99 0 10-17.15-5.37 8.99 8.99 0 0017.15 5.37M1848.7 372.65a9.13 9.13 0 10-17.4-5.46 9.13 9.13 0 0017.4 5.46M1836.13 351.75a8.5 8.5 0 10-16.2-5.07 8.5 8.5 0 0016.2 5.07M1822.59 331.67a7.91 7.91 0 10-15.1-4.73 7.91 7.91 0 0015.1 4.73M1808.64 309.72a6.4 6.4 0 10-12.22-3.83 6.4 6.4 0 0012.22 3.83M1790.46 289.69a5.26 5.26 0 10-10.04-3.14 5.26 5.26 0 0010.04 3.14M1774.44 271.5a3.69 3.69 0 10-7.04-2.21 3.69 3.69 0 007.04 2.2M1757.15 256.18a3.93 3.93 0 10-7.5-2.35 3.93 3.93 0 007.5 2.35M1745.1 235.73a4.1 4.1 0 10-7.83-2.46 4.1 4.1 0 007.84 2.46M1724.35 216.82a2.92 2.92 0 10-5.58-1.75 2.92 2.92 0 005.58 1.75M1707.18 199.6a2.1 2.1 0 10-4.03-1.26 2.1 2.1 0 004.03 1.26M1688.59 183.3a2.57 2.57 0 10-4.9-1.54 2.57 2.57 0 004.9 1.53M1934.57 871.94a1 1 0 10-1.76-.98 1 1 0 001.76.98M1942.2 847.19a2.18 2.18 0 10-3.8-2.1 2.18 2.18 0 003.8 2.1M1948.58 824.45a3.15 3.15 0 10-5.5-3.04 3.15 3.15 0 005.5 3.04M1954.86 802.15a4.05 4.05 0 10-7.1-3.92 4.05 4.05 0 007.1 3.92M1957.98 777.61a3.96 3.96 0 10-6.93-3.83 3.96 3.96 0 006.93 3.83M1962.47 751.33a4.86 4.86 0 10-8.51-4.7 4.86 4.86 0 008.5 4.7M1966.32 728.96a5.98 5.98 0 10-10.47-5.78 5.98 5.98 0 0010.47 5.78M1969.65 706.27a7.29 7.29 0 10-12.75-7.04 7.29 7.29 0 0012.75 7.04M1970.5 680.62a6.86 6.86 0 10-12-6.63 6.86 6.86 0 0012 6.63M1972.2 657.74a8.83 8.83 0 10-15.48-8.54 8.83 8.83 0 0015.47 8.54M1971.79 631.5a9.5 9.5 0 10-16.64-9.19 9.5 9.5 0 0016.64 9.18M1967.93 604.62a9.78 9.78 0 10-17.12-9.45 9.78 9.78 0 0017.12 9.45M1964.98 578.52a10.03 10.03 0 10-17.56-9.7 10.03 10.03 0 0017.56 9.7M1959.6 554.8a9.78 9.78 0 10-17.13-9.45 9.78 9.78 0 0017.12 9.45M1954.33 529.16a8.77 8.77 0 10-15.35-8.48 8.77 8.77 0 0015.35 8.48M1949.07 507.48a8.99 8.99 0 10-15.74-8.7 8.99 8.99 0 0015.74 8.7M1942.72 484.71a9.13 9.13 0 10-15.98-8.82 9.13 9.13 0 0015.98 8.82M1934.56 461.73a8.49 8.49 0 10-14.86-8.2 8.49 8.49 0 0014.86 8.2M1925.3 439.35a7.91 7.91 0 10-13.84-7.65 7.91 7.91 0 0013.85 7.65M1916.02 415.06a6.4 6.4 0 10-11.21-6.2 6.4 6.4 0 0011.21 6.2M1902.2 391.8a5.26 5.26 0 10-9.2-5.09 5.26 5.26 0 009.2 5.09M1890.14 370.77a3.69 3.69 0 10-6.46-3.56 3.69 3.69 0 006.46 3.56M1876.26 352.32a3.93 3.93 0 10-6.88-3.8 3.93 3.93 0 006.88 3.8M1868.53 329.87a4.1 4.1 0 10-7.18-3.97 4.1 4.1 0 007.18 3.97M1851.97 307.2a2.92 2.92 0 10-5.12-2.83 2.92 2.92 0 005.12 2.83M1838.58 286.9a2.1 2.1 0 10-3.69-2.04 2.1 2.1 0 003.7 2.04M1823.62 267.2a2.57 2.57 0 10-4.5-2.48 2.57 2.57 0 004.5 2.49M1887.48 1101.58a1.87 1.87 0 10-2.52-2.77 1.87 1.87 0 002.52 2.77M1901.36 1080.6a2.93 2.93 0 10-3.94-4.32 2.93 2.93 0 003.94 4.33M1914.43 1061.38a3.52 3.52 0 10-4.74-5.2 3.52 3.52 0 004.74 5.2M1927.26 1042.52a4.05 4.05 0 10-5.46-5.99 4.05 4.05 0 005.46 6M1938.1 1020.3a3.96 3.96 0 10-5.34-5.86 3.96 3.96 0 005.34 5.85M1950.79 996.85a4.86 4.86 0 10-6.55-7.19 4.86 4.86 0 006.55 7.19M1961.62 976.9a5.98 5.98 0 10-8.06-8.84 5.98 5.98 0 008.06 8.84M1972.06 956.48a7.29 7.29 0 10-9.81-10.77 7.29 7.29 0 009.81 10.77M1981.11 932.46a6.86 6.86 0 10-9.24-10.13 6.86 6.86 0 009.24 10.13M1990.06 911.33a8.83 8.83 0 10-11.9-13.05 8.83 8.83 0 0011.9 13.05M1998.1 886.35a9.5 9.5 0 10-12.8-14.04 9.5 9.5 0 0012.8 14.04M2003.09 859.67a9.78 9.78 0 10-13.18-14.46 9.78 9.78 0 0013.18 14.46M2008.67 834a10.03 10.03 0 10-13.51-14.82 10.03 10.03 0 0013.51 14.82M2011.2 809.8a9.78 9.78 0 10-13.19-14.45 9.78 9.78 0 0013.18 14.45M2014.44 783.83a8.77 8.77 0 10-11.81-12.96 8.77 8.77 0 0011.81 12.96M2016.43 761.61a8.99 8.99 0 10-12.11-13.28 8.99 8.99 0 0012.1 13.28M2017.73 738.01a9.13 9.13 0 10-12.3-13.48 9.13 9.13 0 0012.3 13.48M2017.39 713.63a8.49 8.49 0 10-11.44-12.55 8.49 8.49 0 0011.44 12.55M2015.81 689.46a7.91 7.91 0 10-10.66-11.7 7.91 7.91 0 0010.66 11.7M2014.82 663.47a6.4 6.4 0 10-8.63-9.47 6.4 6.4 0 008.63 9.47M2009.2 637a5.26 5.26 0 10-7.08-7.76 5.26 5.26 0 007.09 7.77M2004.53 613.22a3.69 3.69 0 10-4.96-5.45 3.69 3.69 0 004.96 5.45M1997.32 591.28a3.93 3.93 0 10-5.3-5.8 3.93 3.93 0 005.3 5.8M1997.21 567.55a4.1 4.1 0 10-5.53-6.07 4.1 4.1 0 005.53 6.07M1988.8 540.75a2.92 2.92 0 10-3.94-4.32 2.92 2.92 0 003.94 4.32M1982.65 517.23a2.1 2.1 0 10-2.84-3.12 2.1 2.1 0 002.84 3.12M1974.81 493.78a2.57 2.57 0 10-3.46-3.8 2.57 2.57 0 003.46 3.8M1879.32 1113.16a1.46 1.46 0 10-2.91 0 1.46 1.46 0 002.91 0M1870.74 1126.03a1.2 1.2 0 10-2.4 0 1.2 1.2 0 002.4 0M1862.8 1136.8a1.07 1.07 0 10-2.14 0 1.07 1.07 0 002.14 0M1858 1142.29a.58.58 0 10-1.17 0 .58.58 0 001.16 0M1855.2 1145.98a.23.23 0 10-.46 0 .23.23 0 00.46 0M1780.7 1307.9a2.63 2.63 0 10-1.88-4.9 2.63 2.63 0 001.88 4.9M1794.76 1298.84a3.57 3.57 0 10-2.55-6.67 3.57 3.57 0 002.55 6.67M1878.3 1206.32a5.62 5.62 0 10-6.1-9.45 5.62 5.62 0 006.1 9.45M1895.91 1187.83a6.8 6.8 0 10-7.38-11.43 6.8 6.8 0 007.38 11.43M1912.42 1165.58a7.53 7.53 0 10-8.17-12.65 7.53 7.53 0 008.17 12.65M1930.68 1142.34a8.6 8.6 0 10-9.34-14.46 8.6 8.6 0 009.34 14.46M1946.04 1120.57a9.01 9.01 0 10-9.78-15.15 9.01 9.01 0 009.78 15.15M1959.13 1098.9a9.94 9.94 0 10-10.78-16.7 9.94 9.94 0 0010.78 16.7M1973.67 1075.9a10.22 10.22 0 10-11.09-17.19 10.22 10.22 0 0011.1 17.18M1986.75 1048.59a9.83 9.83 0 10-10.67-16.52 9.83 9.83 0 0010.67 16.52M2000.18 1022.64a10.57 10.57 0 10-11.47-17.77 10.57 10.57 0 0011.47 17.77M2010.56 994.26a10.89 10.89 0 10-11.8-18.29 10.89 10.89 0 0011.8 18.3M2021.41 967.11a11.16 11.16 0 10-12.1-18.75 11.16 11.16 0 0012.1 18.75M2028.63 941.01a10.89 10.89 0 10-11.8-18.29 10.89 10.89 0 0011.8 18.3M2036.98 913.1a9.76 9.76 0 10-10.59-16.4 9.76 9.76 0 0010.6 16.4M2043.25 889.07a10 10 0 10-10.86-16.81 10 10 0 0010.86 16.81M2049.02 863.4a10.16 10.16 0 10-11.02-17.07 10.16 10.16 0 0011.02 17.07M2053.13 836.57a9.45 9.45 0 10-10.24-15.88 9.45 9.45 0 0010.24 15.88M2055.85 809.74a8.8 8.8 0 10-9.55-14.8 8.8 8.8 0 009.55 14.8M2059.55 781.03a7.13 7.13 0 10-7.74-11.98 7.13 7.13 0 007.74 11.99M2058.25 750.95a5.85 5.85 0 10-6.35-9.84 5.85 5.85 0 006.35 9.84M2057.5 723.97a4.1 4.1 0 10-4.45-6.9 4.1 4.1 0 004.45 6.9M2053.61 698.56a4.37 4.37 0 10-4.74-7.34 4.37 4.37 0 004.74 7.34M2057.87 672.48a4.57 4.57 0 10-4.96-7.68 4.57 4.57 0 004.96 7.68M2053.56 641.52a3.26 3.26 0 10-3.53-5.47 3.26 3.26 0 003.53 5.47M2051.14 614.56a2.35 2.35 0 10-2.55-3.94 2.35 2.35 0 002.55 3.94M2046.85 587.37a2.86 2.86 0 10-3.1-4.8 2.86 2.86 0 003.1 4.8M1771.64 1316.25a2.13 2.13 0 10-4.15-.88 2.13 2.13 0 004.15.88M1761.2 1322.94a1.45 1.45 0 10-2.85-.6 1.45 1.45 0 002.84.6M1753.33 1327.54a.67.67 0 10-1.31-.28.67.67 0 001.3.28M1866.74 1220.46a4.25 4.25 0 10-8.5 0 4.25 4.25 0 008.5 0M1849.98 1240.2a4 4 0 10-7.99 0 4 4 0 008 0M1831.05 1259.4a3.8 3.8 0 10-7.61 0 3.8 3.8 0 007.61 0M1814.37 1277.52a3.44 3.44 0 10-6.88 0 3.44 3.44 0 006.88 0M1674.9 1464.53a2.74 2.74 0 10-1.5-5.28 2.74 2.74 0 001.5 5.28M1690.36 1456.44a3.73 3.73 0 10-2.02-7.18 3.73 3.73 0 002.02 7.18M1794.34 1378.51a5.87 5.87 0 10-4.23-10.94 5.87 5.87 0 004.23 10.94M1813.18 1362.72a7.1 7.1 0 10-5.12-13.24 7.1 7.1 0 005.12 13.24M1835.84 1343.32a7.85 7.85 0 10-5.67-14.65 7.85 7.85 0 005.67 14.65M1859.4 1322.45a8.98 8.98 0 10-6.47-16.75 8.98 8.98 0 006.48 16.75M1879.7 1301.46a9.4 9.4 0 10-6.78-17.54 9.4 9.4 0 006.79 17.54M1899.71 1282.52a10.37 10.37 0 10-7.48-19.34 10.37 10.37 0 007.48 19.34M1919.43 1262.09a10.67 10.67 0 10-7.7-19.9 10.67 10.67 0 007.7 19.9M1938.57 1236.96a10.26 10.26 0 10-7.4-19.13 10.26 10.26 0 007.4 19.13M1957.78 1213.3a11.03 11.03 0 10-7.96-20.58 11.03 11.03 0 007.96 20.58M1974.4 1186.5a11.36 11.36 0 10-8.2-21.18 11.36 11.36 0 008.2 21.18M1991.23 1161.06a11.65 11.65 0 10-8.4-21.72 11.65 11.65 0 008.4 21.72M2004.12 1135.93a11.36 11.36 0 10-8.2-21.19 11.36 11.36 0 008.2 21.19M2018.56 1109.18a10.18 10.18 0 10-7.34-19 10.18 10.18 0 007.34 19M2030.05 1085.96a10.44 10.44 0 10-7.53-19.48 10.44 10.44 0 007.53 19.48M2041.38 1060.96a10.6 10.6 0 10-7.65-19.77 10.6 10.6 0 007.64 19.77M2051.25 1034.41a9.86 9.86 0 10-7.11-18.39 9.86 9.86 0 007.11 18.4M2059.7 1007.59a9.19 9.19 0 10-6.62-17.14 9.19 9.19 0 006.62 17.14M2069.56 979.04a7.44 7.44 0 10-5.37-13.88 7.44 7.44 0 005.37 13.88M2074.6 948.03a6.1 6.1 0 10-4.4-11.39 6.1 6.1 0 004.4 11.39M2079.54 920.31a4.28 4.28 0 10-3.09-7.98 4.28 4.28 0 003.09 7.98M2080.95 893.53a4.56 4.56 0 10-3.3-8.5 4.56 4.56 0 003.3 8.5M2090.81 867.8a4.77 4.77 0 10-3.44-8.9 4.77 4.77 0 003.44 8.9M2092.97 835.26a3.4 3.4 0 10-2.45-6.34 3.4 3.4 0 002.45 6.34M2096.2 807.2a2.45 2.45 0 10-1.77-4.56 2.45 2.45 0 001.76 4.56M2097.56 778.52a2.98 2.98 0 10-2.15-5.57 2.98 2.98 0 002.15 5.57M1664.9 1470.27a2.22 2.22 0 10-4.25-1.3 2.22 2.22 0 004.24 1.3M1653.4 1476.23a1.52 1.52 0 10-2.89-.89 1.52 1.52 0 002.9.9M1644.8 1480.28a.7.7 0 10-1.34-.41.7.7 0 001.34.4M1779.54 1389.5a4.43 4.43 0 10-8.68-1.8 4.43 4.43 0 008.68 1.8M1756.25 1408.13a4.17 4.17 0 10-8.17-1.7 4.17 4.17 0 008.17 1.7M1734.86 1422.95a3.97 3.97 0 10-7.78-1.61 3.97 3.97 0 007.78 1.6M1714 1437.66a3.59 3.59 0 10-6.86-2.11 3.59 3.59 0 006.86 2.1M1759.08 377.59a1 1 0 10-1.89.69 1 1 0 001.9-.7M1745.4 355.6a2.17 2.17 0 10-4.08 1.49 2.17 2.17 0 004.08-1.5M1732.42 335.87a3.15 3.15 0 10-5.91 2.16 3.15 3.15 0 005.9-2.16M1719.7 316.5a4.05 4.05 0 10-7.62 2.8 4.05 4.05 0 007.61-2.8M1703.22 298.06a3.96 3.96 0 10-7.44 2.73 3.96 3.96 0 007.44-2.73M1686.31 277.45a4.86 4.86 0 10-9.12 3.34 4.86 4.86 0 009.12-3.34M1671.95 259.87a5.98 5.98 0 10-11.23 4.11 5.98 5.98 0 0011.23-4.11M1657 242.47a7.28 7.28 0 10-13.68 5.02 7.28 7.28 0 0013.68-5.02M1638.2 225.01a6.86 6.86 0 10-12.88 4.72 6.86 6.86 0 0012.87-4.72M1622.02 208.73a8.83 8.83 0 10-16.58 6.08 8.83 8.83 0 0016.58-6.08M1601.94 191.83a9.5 9.5 0 10-17.84 6.54 9.5 9.5 0 0017.84-6.54M1579.13 177.12a9.78 9.78 0 10-18.37 6.73 9.78 9.78 0 0018.37-6.73M1557.48 162.24a10.03 10.03 0 10-18.83 6.9 10.03 10.03 0 0018.83-6.9M1536.04 150.75a9.78 9.78 0 10-18.37 6.73 9.78 9.78 0 0018.37-6.73M1513.23 137.91a8.77 8.77 0 10-16.47 6.04 8.77 8.77 0 0016.47-6.04M1493.41 127.67a8.99 8.99 0 10-16.88 6.18 8.99 8.99 0 0016.88-6.18M1472.06 117.53a9.13 9.13 0 10-17.14 6.28 9.13 9.13 0 0017.14-6.28M1449.36 108.62a8.49 8.49 0 10-15.94 5.84 8.49 8.49 0 0015.94-5.84M1426.4 100.94a7.91 7.91 0 10-14.86 5.44 7.91 7.91 0 0014.85-5.44M1401.96 92.02a6.4 6.4 0 10-12.03 4.4 6.4 6.4 0 0012.03-4.4M1375.34 87.2a5.26 5.26 0 10-9.87 3.62 5.26 5.26 0 009.87-3.62M1351.55 82.52a3.69 3.69 0 10-6.92 2.54 3.69 3.69 0 006.92-2.54M1328.52 80.9a3.93 3.93 0 10-7.38 2.7 3.93 3.93 0 007.38-2.7M1306.5 72.02a4.1 4.1 0 10-7.7 2.82 4.1 4.1 0 007.7-2.82M1278.53 69.66a2.92 2.92 0 10-5.5 2.02 2.92 2.92 0 005.5-2.02M1254.42 66.46a2.1 2.1 0 10-3.96 1.45 2.1 2.1 0 003.96-1.45M1229.75 64.84a2.57 2.57 0 10-4.83 1.77 2.57 2.57 0 004.83-1.77M1644.33 307.28a.85.85 0 10-1.49.82.85.85 0 001.49-.82M1630.03 290.73a1.84 1.84 0 10-3.2 1.78 1.84 1.84 0 003.2-1.78M1616.62 275.98a2.65 2.65 0 10-4.65 2.58 2.65 2.65 0 004.65-2.58M1603.46 261.5a3.42 3.42 0 10-5.98 3.33 3.42 3.42 0 005.98-3.32M1587.3 248.28a3.34 3.34 0 10-5.84 3.25 3.34 3.34 0 005.84-3.25M1570.5 233.3a4.1 4.1 0 10-7.17 4 4.1 4.1 0 007.17-4M1556.21 220.53a5.05 5.05 0 10-8.82 4.9 5.05 5.05 0 008.82-4.9M1541.47 207.99a6.15 6.15 0 10-10.76 5.97 6.15 6.15 0 0010.76-5.97M1523.49 195.89a5.79 5.79 0 10-10.12 5.62 5.79 5.79 0 0010.12-5.62M1507.87 184.44a7.46 7.46 0 10-13.04 7.24 7.46 7.46 0 0013.04-7.24M1488.9 172.97a8.02 8.02 0 10-14.02 7.8 8.02 8.02 0 0014.02-7.8M1467.94 163.7a8.26 8.26 0 10-14.43 8.02 8.26 8.26 0 0014.43-8.02M1447.94 154.13a8.47 8.47 0 10-14.8 8.22 8.47 8.47 0 0014.8-8.22M1428.55 147.36a8.26 8.26 0 10-14.43 8.02 8.26 8.26 0 0014.43-8.02M1407.84 139.64a7.4 7.4 0 10-12.94 7.2 7.4 7.4 0 0012.94-7.2M1389.97 133.7a7.59 7.59 0 10-13.27 7.37 7.59 7.59 0 0013.27-7.37M1370.83 128.05a7.7 7.7 0 10-13.47 7.48 7.7 7.7 0 0013.47-7.48M1350.73 123.6a7.17 7.17 0 10-12.53 6.96 7.17 7.17 0 0012.53-6.96M1330.57 120.2a6.68 6.68 0 10-11.68 6.49 6.68 6.68 0 0011.68-6.5M1309.02 115.97a5.41 5.41 0 10-9.45 5.25 5.41 5.41 0 009.45-5.25M1286.19 115.44a4.44 4.44 0 10-7.76 4.31 4.44 4.44 0 007.76-4.3M1265.73 114.66a3.11 3.11 0 10-5.44 3.02 3.11 3.11 0 005.44-3.02M1246.31 116.33a3.32 3.32 0 10-5.8 3.23 3.32 3.32 0 005.8-3.23M1226.79 111.81a3.47 3.47 0 10-6.06 3.37 3.47 3.47 0 006.06-3.37M1203.14 113.52a2.47 2.47 0 10-4.31 2.4 2.47 2.47 0 004.31-2.4M1182.62 114a1.78 1.78 0 10-3.11 1.73 1.78 1.78 0 003.1-1.72M1161.83 115.9a2.17 2.17 0 10-3.8 2.1 2.17 2.17 0 003.8-2.1M687.71 1038.58c-.03.54.35.98.85.98s.94-.43.98-.98c.03-.54-.35-.98-.86-.98-.5 0-.94.44-.97.98M690.98 1063.38c-.07 1.17.75 2.12 1.85 2.13 1.09 0 2.03-.95 2.1-2.13.08-1.17-.75-2.13-1.84-2.13-1.1 0-2.04.95-2.11 2.13M694.5 1085.86c-.1 1.7 1.1 3.08 2.68 3.08s2.94-1.38 3.04-3.07c.11-1.7-1.09-3.08-2.66-3.08-1.58 0-2.95 1.37-3.05 3.07M697.95 1107.92c-.13 2.19 1.4 3.96 3.44 3.97 2.03 0 3.8-1.77 3.93-3.96.13-2.19-1.4-3.97-3.44-3.97-2.03 0-3.8 1.77-3.93 3.96M704.86 1130.4c-.13 2.15 1.37 3.88 3.36 3.88 1.98 0 3.7-1.73 3.83-3.86.13-2.14-1.37-3.88-3.36-3.88-1.98 0-3.7 1.73-3.83 3.87M711.32 1155.03c-.17 2.63 1.68 4.76 4.12 4.76 2.44 0 4.55-2.12 4.7-4.75.17-2.62-1.68-4.75-4.11-4.76-2.44 0-4.55 2.13-4.71 4.75M716.79 1176c-.2 3.24 2.07 5.86 5.07 5.86 3 0 5.6-2.61 5.8-5.84.19-3.23-2.08-5.85-5.08-5.85s-5.6 2.61-5.8 5.84M722.8 1197.01c-.24 3.94 2.53 7.13 6.19 7.13 3.65 0 6.81-3.18 7.05-7.11.25-3.94-2.52-7.13-6.18-7.13-3.65 0-6.81 3.18-7.05 7.11M732.02 1219.39c-.23 3.7 2.37 6.7 5.81 6.7 3.44.01 6.42-2.99 6.65-6.69.22-3.7-2.38-6.7-5.82-6.71-3.44 0-6.42 3-6.64 6.7M739.47 1239.78c-.3 4.77 3.06 8.64 7.5 8.64 4.42 0 8.26-3.85 8.55-8.62.3-4.77-3.06-8.64-7.5-8.65-4.43 0-8.26 3.86-8.55 8.63M749.94 1262.06c-.31 5.13 3.3 9.3 8.06 9.3 4.77 0 8.89-4.15 9.2-9.28.32-5.13-3.29-9.29-8.05-9.3-4.77 0-8.9 4.15-9.2 9.28M763.5 1283.26c-.32 5.28 3.4 9.57 8.3 9.57 4.9.01 9.15-4.27 9.48-9.55.32-5.28-3.4-9.57-8.3-9.57s-9.15 4.27-9.48 9.55M776.03 1304.22c-.34 5.42 3.47 9.81 8.5 9.82 5.04 0 9.39-4.38 9.72-9.8.33-5.41-3.48-9.8-8.5-9.81-5.04 0-9.39 4.38-9.72 9.8M789.63 1322c-.32 5.28 3.4 9.56 8.3 9.57 4.9 0 9.15-4.27 9.48-9.55.32-5.28-3.4-9.57-8.3-9.57s-9.15 4.27-9.48 9.55M803.88 1341.48c-.29 4.73 3.04 8.58 7.44 8.58s8.2-3.83 8.5-8.56c.3-4.74-3.04-8.58-7.44-8.59-4.4 0-8.2 3.83-8.5 8.57M816.6 1357.56c-.3 4.86 3.11 8.8 7.62 8.8s8.41-3.92 8.71-8.78c.3-4.85-3.11-8.8-7.62-8.8-4.52 0-8.41 3.93-8.71 8.78M830.63 1374.07c-.3 4.93 3.16 8.93 7.74 8.93s8.54-3.98 8.84-8.91c.3-4.93-3.16-8.93-7.74-8.93-4.58-.01-8.54 3.98-8.84 8.9M846.24 1389.9c-.29 4.59 2.94 8.31 7.2 8.32 4.26 0 7.94-3.71 8.22-8.3.29-4.58-2.94-8.3-7.2-8.3-4.26-.01-7.94 3.7-8.22 8.29M862.52 1404.7c-.27 4.28 2.74 7.75 6.7 7.75 3.98 0 7.4-3.45 7.67-7.73.27-4.27-2.74-7.73-6.7-7.74-3.98 0-7.41 3.46-7.67 7.73M879.56 1421.13c-.21 3.46 2.22 6.27 5.43 6.27 3.22 0 6-2.8 6.21-6.25.21-3.46-2.22-6.27-5.43-6.27-3.22 0-6 2.8-6.21 6.25M899.94 1434.54c-.17 2.84 1.82 5.14 4.46 5.14 2.64 0 4.92-2.3 5.1-5.13.17-2.84-1.83-5.15-4.46-5.15-2.64 0-4.92 2.3-5.1 5.14M918.02 1446.85c-.13 2 1.27 3.61 3.12 3.61s3.45-1.6 3.58-3.6c.12-1.99-1.28-3.6-3.13-3.6-1.85 0-3.45 1.6-3.57 3.6M936.6 1456.11c-.14 2.12 1.35 3.84 3.32 3.85 1.97 0 3.68-1.72 3.8-3.84.14-2.12-1.35-3.84-3.32-3.84-1.97 0-3.68 1.71-3.8 3.83M951.63 1471.7c-.13 2.21 1.43 4.01 3.49 4.01 2.06 0 3.84-1.79 3.97-4 .14-2.22-1.42-4.02-3.48-4.03-2.06 0-3.84 1.8-3.98 4.01M974.06 1483.3c-.1 1.57 1 2.85 2.48 2.86 1.46 0 2.73-1.28 2.83-2.86.1-1.58-1.01-2.86-2.48-2.86s-2.74 1.28-2.83 2.85M992.94 1494.37c-.07 1.14.73 2.06 1.79 2.06 1.05 0 1.97-.92 2.04-2.06.07-1.14-.73-2.06-1.8-2.06-1.05 0-1.96.92-2.03 2.06M1012.88 1504.18c-.08 1.39.9 2.51 2.18 2.51 1.29 0 2.4-1.12 2.49-2.5.09-1.4-.9-2.52-2.18-2.52-1.29 0-2.4 1.12-2.49 2.5M656.08 859.23c-.18.52.05 1.07.52 1.23.47.17 1-.12 1.19-.64.18-.52-.06-1.07-.53-1.23-.47-.16-1 .12-1.18.64M652.22 884.43c-.4 1.12.1 2.32 1.13 2.67 1.02.35 2.17-.27 2.56-1.4.4-1.11-.11-2.3-1.13-2.66-1.02-.35-2.17.27-2.56 1.39M649.24 907.46c-.57 1.62.17 3.35 1.64 3.85 1.48.51 3.13-.39 3.7-2 .58-1.63-.15-3.35-1.63-3.86-1.47-.51-3.13.39-3.7 2M646.31 930.05c-.74 2.09.2 4.31 2.1 4.97 1.9.65 4.04-.5 4.78-2.6.74-2.08-.2-4.3-2.1-4.96-1.9-.66-4.04.5-4.78 2.59M646.5 954.17c-.73 2.04.2 4.21 2.05 4.85 1.86.64 3.95-.5 4.67-2.53.72-2.04-.2-4.21-2.06-4.86-1.86-.64-3.95.5-4.67 2.54M645.66 980.22c-.88 2.5.25 5.17 2.53 5.96s4.84-.6 5.73-3.1c.88-2.51-.25-5.18-2.53-5.97-2.28-.78-4.85.6-5.73 3.11M644.92 1002.4c-1.08 3.09.3 6.37 3.11 7.34 2.8.97 5.96-.75 7.05-3.83 1.08-3.07-.31-6.36-3.11-7.32-2.8-.97-5.96.74-7.05 3.82M644.7 1024.8c-1.33 3.75.36 7.75 3.78 8.93 3.42 1.18 7.26-.9 8.58-4.66 1.33-3.75-.37-7.75-3.79-8.93-3.41-1.18-7.26.9-8.58 4.66M647.06 1049.55c-1.25 3.53.35 7.3 3.56 8.4 3.22 1.11 6.84-.85 8.08-4.38 1.25-3.53-.35-7.3-3.56-8.4-3.22-1.12-6.83.85-8.08 4.38M648.34 1071.8c-1.6 4.55.45 9.4 4.59 10.83 4.14 1.43 8.8-1.1 10.4-5.65 1.61-4.55-.44-9.4-4.59-10.83-4.14-1.43-8.8 1.1-10.4 5.65M651.91 1096.87c-1.72 4.9.49 10.11 4.94 11.65 4.46 1.54 9.47-1.18 11.2-6.08 1.72-4.9-.5-10.1-4.95-11.64-4.45-1.54-9.46 1.18-11.19 6.07M658.68 1121.87c-1.78 5.04.5 10.41 5.08 12 4.59 1.58 9.75-1.22 11.52-6.26 1.78-5.04-.5-10.4-5.08-12-4.59-1.57-9.75 1.23-11.52 6.26M664.54 1146.31c-1.83 5.17.5 10.67 5.21 12.3 4.7 1.62 10-1.25 11.81-6.42 1.83-5.16-.5-10.67-5.21-12.29-4.7-1.62-10 1.25-11.81 6.41M672.3 1168c-1.78 5.04.5 10.4 5.08 11.99 4.59 1.58 9.75-1.22 11.52-6.25 1.78-5.04-.5-10.41-5.08-12-4.59-1.58-9.75 1.22-11.52 6.26M680.18 1191.55c-1.59 4.52.45 9.33 4.56 10.75 4.12 1.42 8.74-1.09 10.34-5.6 1.59-4.52-.45-9.34-4.56-10.76-4.12-1.42-8.74 1.1-10.34 5.61M687.58 1211.3c-1.63 4.64.46 9.57 4.67 11.03 4.22 1.45 8.96-1.12 10.6-5.75 1.63-4.63-.46-9.57-4.68-11.02-4.21-1.46-8.96 1.11-10.59 5.75M696.1 1231.89c-1.67 4.7.46 9.71 4.74 11.19 4.28 1.48 9.09-1.14 10.75-5.84 1.66-4.7-.47-9.7-4.75-11.19-4.28-1.47-9.09 1.14-10.75 5.84M706.27 1252.33c-1.55 4.38.43 9.04 4.4 10.41 3.99 1.38 8.47-1.06 10.01-5.43 1.54-4.37-.43-9.03-4.41-10.4-3.98-1.38-8.46 1.05-10 5.42M717.36 1271.98c-1.44 4.08.4 8.42 4.11 9.7 3.7 1.28 7.88-.98 9.32-5.06 1.44-4.07-.4-8.42-4.11-9.7-3.71-1.28-7.89.99-9.32 5.06M728.7 1293.46c-1.16 3.3.33 6.82 3.34 7.85 3 1.04 6.38-.8 7.54-4.1 1.17-3.3-.32-6.81-3.33-7.85-3-1.04-6.38.8-7.55 4.1M744.02 1313.06c-.96 2.71.27 5.6 2.73 6.45 2.47.85 5.24-.65 6.2-3.36.95-2.71-.27-5.6-2.74-6.45-2.46-.85-5.24.66-6.2 3.36M757.48 1330.87c-.67 1.9.19 3.93 1.92 4.52 1.73.6 3.67-.46 4.34-2.35.67-1.9-.19-3.93-1.92-4.52-1.73-.6-3.67.45-4.34 2.35M772.26 1345.86c-.71 2.03.2 4.18 2.04 4.82 1.84.63 3.92-.5 4.63-2.51.71-2.03-.2-4.18-2.04-4.82-1.84-.64-3.92.49-4.63 2.51M781.98 1365.87c-.75 2.12.2 4.37 2.13 5.04 1.93.66 4.1-.51 4.84-2.63.74-2.11-.21-4.37-2.14-5.03-1.92-.67-4.09.5-4.83 2.62M799.7 1384.38c-.53 1.5.15 3.11 1.52 3.59 1.37.47 2.91-.37 3.44-1.87.54-1.5-.14-3.11-1.51-3.59-1.38-.47-2.92.37-3.45 1.87M814.26 1401.24c-.38 1.08.1 2.24 1.1 2.58.99.34 2.1-.26 2.48-1.35.38-1.08-.1-2.24-1.1-2.58-.98-.34-2.1.26-2.48 1.35M830.17 1417.2c-.47 1.33.13 2.74 1.33 3.16 1.2.41 2.56-.32 3.03-1.65.47-1.32-.13-2.73-1.34-3.15-1.2-.41-2.56.32-3.02 1.65M648.16 743.61c-.28.48-.15 1.08.27 1.34.43.26 1 .1 1.27-.38s.15-1.08-.28-1.34c-.43-.26-1-.1-1.26.38M639.73 767.8c-.6 1.03-.33 2.33.6 2.9.92.56 2.14.2 2.73-.84.6-1.02.33-2.32-.6-2.89-.91-.57-2.14-.2-2.73.83M632.56 790.03c-.85 1.49-.46 3.36.87 4.18 1.33.82 3.1.28 3.96-1.2.85-1.49.46-3.36-.87-4.18-1.33-.82-3.1-.29-3.96 1.2M625.52 811.83c-1.1 1.91-.6 4.32 1.11 5.38 1.72 1.06 4 .37 5.1-1.54 1.1-1.92.6-4.33-1.11-5.39-1.72-1.06-4-.37-5.1 1.55M621.2 835.81c-1.07 1.88-.59 4.23 1.09 5.27 1.67 1.03 3.9.36 4.98-1.52 1.08-1.87.59-4.22-1.09-5.26-1.67-1.03-3.9-.36-4.98 1.51M615.54 861.5c-1.32 2.3-.72 5.2 1.34 6.47 2.06 1.27 4.8.44 6.11-1.86 1.33-2.3.73-5.19-1.33-6.46-2.06-1.27-4.8-.44-6.12 1.86M610.7 883.38c-1.63 2.82-.9 6.38 1.64 7.94 2.53 1.57 5.9.54 7.52-2.28 1.63-2.82.9-6.38-1.64-7.95-2.53-1.56-5.9-.54-7.52 2.29M606.3 905.56c-1.98 3.44-1.08 7.77 2 9.68 3.08 1.9 7.19.66 9.17-2.78 1.98-3.44 1.08-7.78-2-9.68-3.08-1.91-7.19-.66-9.17 2.78M603.98 930.64c-1.86 3.24-1.02 7.32 1.88 9.11 2.9 1.8 6.77.62 8.63-2.62 1.86-3.24 1.02-7.32-1.88-9.1-2.9-1.8-6.76-.63-8.63 2.61M601.07 953c-2.4 4.18-1.31 9.44 2.43 11.75 3.73 2.3 8.71.8 11.11-3.38 2.4-4.17 1.31-9.42-2.42-11.74-3.74-2.3-8.72-.8-11.12 3.38M599.86 978.67c-2.58 4.49-1.41 10.14 2.6 12.62 4.03 2.49 9.38.86 11.96-3.62 2.58-4.5 1.41-10.14-2.6-12.63-4.03-2.48-9.38-.86-11.96 3.63M601.74 1004.95c-2.66 4.62-1.46 10.44 2.68 13 4.14 2.55 9.65.88 12.31-3.74s1.46-10.44-2.68-13c-4.14-2.56-9.65-.88-12.3 3.74M602.85 1030.47c-2.72 4.74-1.49 10.7 2.75 13.33 4.25 2.62 9.9.9 12.62-3.83 2.73-4.74 1.5-10.7-2.75-13.33-4.24-2.62-9.9-.9-12.62 3.83M606.32 1053.67c-2.66 4.62-1.46 10.44 2.68 13 4.14 2.56 9.65.88 12.3-3.74 2.66-4.62 1.46-10.44-2.68-13-4.14-2.55-9.64-.88-12.3 3.74M609.56 1078.75c-2.39 4.14-1.3 9.36 2.4 11.65 3.71 2.3 8.65.8 11.04-3.35 2.38-4.14 1.3-9.36-2.41-11.65-3.71-2.3-8.65-.8-11.03 3.35M613.03 1099.95c-2.44 4.25-1.34 9.6 2.46 11.95 3.8 2.35 8.87.81 11.31-3.44 2.45-4.24 1.34-9.6-2.46-11.94-3.8-2.35-8.87-.82-11.31 3.43M617.42 1122.22c-2.48 4.3-1.36 9.74 2.5 12.13 3.87 2.38 9.01.82 11.49-3.49 2.48-4.31 1.36-9.74-2.5-12.13-3.87-2.38-9-.82-11.49 3.49M623.45 1144.7c-2.3 4.01-1.26 9.06 2.33 11.28 3.6 2.22 8.37.77 10.68-3.24 2.3-4.01 1.26-9.06-2.33-11.28-3.59-2.22-8.37-.77-10.68 3.24M630.51 1166.6c-2.15 3.73-1.17 8.44 2.17 10.5 3.35 2.07 7.8.72 9.96-3.02 2.15-3.73 1.17-8.44-2.17-10.5-3.35-2.08-7.8-.73-9.96 3.01M637.48 1190.35c-1.74 3.03-.95 6.84 1.76 8.52 2.71 1.67 6.32.58 8.06-2.45 1.74-3.03.96-6.84-1.75-8.51-2.72-1.68-6.32-.58-8.07 2.44M648.64 1213.1c-1.43 2.5-.78 5.62 1.44 7 2.23 1.37 5.19.47 6.62-2.01 1.43-2.49.78-5.61-1.45-6.99-2.22-1.37-5.18-.47-6.61 2M658.34 1233.68c-1 1.74-.55 3.94 1 4.9 1.57.97 3.64.34 4.65-1.4 1-1.75.55-3.94-1.02-4.9-1.56-.97-3.63-.34-4.63 1.4M669.84 1251.74c-1.07 1.86-.59 4.2 1.07 5.22 1.67 1.03 3.88.36 4.95-1.5 1.06-1.86.58-4.2-1.08-5.22-1.66-1.03-3.88-.36-4.94 1.5M675.5 1273.7c-1.11 1.94-.61 4.38 1.13 5.45 1.73 1.08 4.05.37 5.16-1.57 1.12-1.94.61-4.38-1.12-5.45-1.74-1.08-4.05-.37-5.17 1.57M689.19 1295.88c-.8 1.38-.44 3.12.8 3.89 1.24.76 2.89.26 3.68-1.12.8-1.38.44-3.12-.8-3.89-1.24-.76-2.89-.26-3.68 1.12M700.13 1315.74c-.57 1-.32 2.25.58 2.8.89.56 2.08.2 2.65-.8.57-1 .31-2.25-.58-2.8-.9-.55-2.08-.2-2.65.8M712.53 1335.01c-.7 1.22-.38 2.75.7 3.42 1.1.67 2.54.23 3.24-.98.7-1.22.38-2.75-.7-3.42-1.1-.67-2.54-.23-3.24.98M704.78 519.13a1.95 1.95 0 00-.27 2.58c.58.75 1.65.8 2.39.12.73-.68.85-1.83.27-2.58-.59-.75-1.66-.8-2.4-.12M690.9 539.62a3.05 3.05 0 00-.42 4.04c.91 1.17 2.6 1.26 3.74.2a3.05 3.05 0 00.43-4.05c-.92-1.17-2.6-1.26-3.75-.2M677.87 558.4a3.66 3.66 0 00-.5 4.86c1.1 1.4 3.11 1.5 4.5.23a3.66 3.66 0 00.5-4.86c-1.1-1.4-3.11-1.5-4.5-.22M665.08 576.83a4.22 4.22 0 00-.59 5.6c1.27 1.61 3.6 1.73 5.19.26a4.22 4.22 0 00.58-5.6c-1.27-1.62-3.59-1.74-5.18-.26M653.89 598.55a4.12 4.12 0 00-.57 5.47c1.24 1.58 3.5 1.7 5.07.26a4.13 4.13 0 00.57-5.47c-1.24-1.58-3.51-1.7-5.07-.26M640.95 621.46a5.07 5.07 0 00-.7 6.72c1.52 1.94 4.3 2.08 6.22.31a5.07 5.07 0 00.7-6.71c-1.52-1.94-4.31-2.08-6.22-.32M629.9 640.96c-2.35 2.17-2.73 5.87-.86 8.26 1.88 2.39 5.3 2.56 7.65.39 2.35-2.18 2.74-5.87.86-8.26-1.87-2.39-5.3-2.56-7.65-.4M619.18 660.9c-2.86 2.66-3.33 7.16-1.05 10.07 2.29 2.91 6.46 3.13 9.33.48 2.86-2.65 3.33-7.16 1.05-10.07-2.29-2.9-6.46-3.12-9.33-.47M609.52 684.39c-2.7 2.49-3.14 6.73-1 9.47 2.16 2.73 6.09 2.93 8.78.44 2.7-2.49 3.14-6.73.99-9.47-2.15-2.74-6.08-2.94-8.77-.44M600.12 705.03c-3.48 3.21-4.05 8.68-1.28 12.2 2.77 3.53 7.83 3.79 11.3.58 3.48-3.21 4.05-8.67 1.28-12.2-2.77-3.53-7.83-3.79-11.3-.58M591.3 729.45c-3.74 3.45-4.35 9.33-1.37 13.12 2.98 3.8 8.42 4.07 12.15.62 3.74-3.45 4.35-9.32 1.38-13.12-2.98-3.8-8.43-4.07-12.16-.62M585.16 755.54c-3.84 3.55-4.47 9.6-1.4 13.5 3.06 3.91 8.66 4.2 12.5.64 3.85-3.55 4.49-9.6 1.42-13.5-3.07-3.91-8.67-4.2-12.52-.64M578.54 780.63c-3.94 3.64-4.59 9.84-1.44 13.85 3.14 4 8.89 4.3 12.83.65 3.94-3.64 4.59-9.84 1.45-13.85-3.15-4-8.9-4.3-12.84-.65M574.8 804.28c-3.85 3.56-4.48 9.6-1.41 13.51 3.06 3.9 8.66 4.2 12.51.64 3.85-3.56 4.48-9.6 1.41-13.51-3.06-3.9-8.67-4.2-12.51-.64M570.28 829.68c-3.45 3.18-4.02 8.6-1.27 12.1 2.75 3.51 7.78 3.77 11.22.58 3.45-3.19 4.02-8.6 1.27-12.11-2.75-3.5-7.77-3.76-11.22-.57M567.14 851.4c-3.54 3.26-4.12 8.82-1.3 12.41 2.82 3.6 7.97 3.86 11.5.59 3.54-3.27 4.12-8.83 1.3-12.42-2.82-3.59-7.97-3.85-11.5-.58M564.53 874.47c-3.59 3.32-4.18 8.96-1.32 12.6 2.86 3.65 8.1 3.92 11.68.6 3.59-3.32 4.18-8.96 1.32-12.6-2.86-3.65-8.09-3.92-11.68-.6M563.37 898.31c-3.33 3.09-3.88 8.34-1.22 11.73 2.66 3.4 7.52 3.64 10.86.55 3.34-3.08 3.89-8.33 1.23-11.72-2.67-3.4-7.53-3.64-10.87-.56M563.35 921.95c-3.11 2.87-3.62 7.76-1.14 10.92 2.48 3.16 7.01 3.4 10.12.52 3.11-2.88 3.62-7.77 1.14-10.93-2.48-3.16-7-3.39-10.12-.51M562.68 947.36c-2.52 2.32-2.93 6.29-.92 8.85 2 2.55 5.68 2.74 8.2.41 2.52-2.33 2.93-6.29.92-8.85-2-2.56-5.68-2.74-8.2-.41M566.2 973.24c-2.08 1.91-2.42 5.16-.77 7.26 1.65 2.1 4.66 2.25 6.73.34 2.07-1.9 2.4-5.16.76-7.26-1.65-2.1-4.66-2.25-6.73-.34M569 996.5a3.84 3.84 0 00-.53 5.1c1.16 1.47 3.27 1.58 4.72.24a3.84 3.84 0 00.53-5.1c-1.15-1.47-3.27-1.58-4.72-.24M574.24 1017.96a4.1 4.1 0 00-.57 5.42c1.23 1.57 3.48 1.69 5.03.26a4.1 4.1 0 00.56-5.43c-1.23-1.57-3.48-1.68-5.02-.25M572.9 1041.17a4.28 4.28 0 00-.59 5.67c1.29 1.64 3.64 1.76 5.26.27a4.28 4.28 0 00.59-5.67c-1.29-1.64-3.64-1.76-5.26-.27M578.93 1067.37a3.05 3.05 0 00-.42 4.04c.91 1.17 2.59 1.25 3.74.2a3.05 3.05 0 00.42-4.05c-.92-1.16-2.59-1.25-3.74-.19M583.1 1090.38a2.2 2.2 0 00-.3 2.91c.66.85 1.87.9 2.7.14a2.2 2.2 0 00.3-2.91c-.66-.84-1.87-.9-2.7-.14M588.81 1113.32a2.68 2.68 0 00-.37 3.55c.81 1.03 2.28 1.1 3.3.17a2.68 2.68 0 00.36-3.55c-.8-1.03-2.28-1.1-3.29-.17M712.89 507.8c-.05.8.5 1.43 1.23 1.43.74 0 1.37-.63 1.42-1.42.05-.79-.5-1.43-1.24-1.43-.73 0-1.36.64-1.41 1.43M721.46 495.24c-.04.65.42 1.17 1.02 1.18.6 0 1.12-.53 1.16-1.18.04-.64-.42-1.17-1.02-1.17-.6 0-1.12.52-1.16 1.17M729.32 484.71c-.03.58.37 1.05.91 1.05s1-.46 1.04-1.04c.04-.58-.37-1.05-.9-1.05-.55 0-1.01.47-1.05 1.04M734.02 479.35c-.01.32.2.57.5.57s.55-.25.56-.57c.02-.31-.2-.57-.49-.57-.3 0-.55.26-.57.57M736.78 475.75c0 .12.08.22.2.22.11 0 .21-.1.22-.22 0-.12-.08-.22-.2-.22-.11 0-.2.1-.22.22M814.23 317.5c-1.26.51-1.97 2-1.58 3.32.39 1.33 1.73 2 3 1.49 1.26-.5 1.97-2 1.58-3.32a2.22 2.22 0 00-3-1.49M800.9 326.35a3.79 3.79 0 00-2.14 4.5 3.01 3.01 0 004.07 2.03 3.79 3.79 0 002.15-4.51 3.01 3.01 0 00-4.07-2.02M719.43 416.73a5.95 5.95 0 00-1.99 7.6 4.75 4.75 0 006.96 1.64 5.95 5.95 0 002-7.6 4.75 4.75 0 00-6.97-1.64M702.31 434.78a7.2 7.2 0 00-2.4 9.2 5.74 5.74 0 008.42 1.99 7.2 7.2 0 002.4-9.2 5.74 5.74 0 00-8.42-1.99M685.98 456.53a7.96 7.96 0 00-2.67 10.17c1.84 3.42 6.02 4.4 9.32 2.2a7.96 7.96 0 002.67-10.17c-1.84-3.42-6.01-4.4-9.32-2.2M667.98 479.22c-3.78 2.52-5.14 7.73-3.04 11.64 2.1 3.9 6.87 5.03 10.66 2.52 3.78-2.52 5.14-7.73 3.04-11.64-2.1-3.9-6.87-5.03-10.66-2.52M652.72 500.5c-3.96 2.63-5.4 8.08-3.2 12.18 2.2 4.09 7.2 5.27 11.17 2.63 3.96-2.63 5.4-8.09 3.19-12.18-2.2-4.1-7.2-5.27-11.16-2.64M639.52 521.66c-4.37 2.91-5.95 8.92-3.52 13.44 2.43 4.51 7.94 5.81 12.3 2.9 4.38-2.9 5.95-8.91 3.52-13.43-2.42-4.5-7.93-5.81-12.3-2.9M624.92 544.15c-4.5 2.99-6.12 9.17-3.62 13.82 2.5 4.64 8.16 5.98 12.66 2.99 4.5-3 6.11-9.18 3.62-13.82-2.5-4.64-8.17-5.98-12.66-3M611.4 570.83c-4.33 2.88-5.89 8.83-3.49 13.3 2.4 4.46 7.86 5.75 12.18 2.87 4.32-2.87 5.88-8.82 3.48-13.29-2.4-4.46-7.85-5.75-12.18-2.88M597.63 596.19c-4.65 3.1-6.33 9.49-3.75 14.3 2.59 4.8 8.45 6.18 13.1 3.09 4.65-3.1 6.32-9.5 3.74-14.3-2.58-4.8-8.44-6.18-13.1-3.09M586.48 623.93c-4.78 3.18-6.5 9.77-3.85 14.7 2.66 4.95 8.7 6.38 13.48 3.2 4.79-3.19 6.51-9.77 3.85-14.72-2.65-4.94-8.69-6.37-13.48-3.18M574.99 650.46c-4.91 3.27-6.68 10.02-3.95 15.09 2.72 5.06 8.9 6.53 13.82 3.26 4.9-3.26 6.67-10.01 3.95-15.08-2.73-5.07-8.92-6.53-13.82-3.27M566.86 675.97c-4.79 3.18-6.51 9.77-3.86 14.71 2.66 4.95 8.7 6.37 13.48 3.19 4.79-3.18 6.51-9.77 3.86-14.71-2.66-4.94-8.7-6.37-13.48-3.19M557.59 703.26c-4.3 2.85-5.84 8.76-3.46 13.2 2.39 4.42 7.8 5.7 12.09 2.85 4.3-2.86 5.84-8.76 3.45-13.2-2.38-4.43-7.8-5.7-12.08-2.85M550.45 726.74c-4.4 2.93-5.99 8.98-3.55 13.53 2.45 4.54 8 5.85 12.4 2.93 4.4-2.93 5.98-8.98 3.54-13.53-2.45-4.54-8-5.85-12.4-2.93M543.65 751.84c-4.46 2.97-6.07 9.11-3.59 13.72 2.48 4.62 8.11 5.95 12.58 2.98 4.46-2.97 6.07-9.12 3.6-13.73-2.49-4.61-8.12-5.94-12.59-2.97M538.3 778.07c-4.15 2.76-5.65 8.48-3.34 12.77 2.3 4.3 7.54 5.53 11.7 2.77 4.15-2.77 5.65-8.48 3.34-12.77-2.3-4.3-7.54-5.53-11.7-2.77M534.22 804.3c-3.87 2.57-5.27 7.9-3.12 11.9 2.15 4 7.03 5.14 10.9 2.57 3.88-2.57 5.27-7.9 3.12-11.9-2.15-4-7.03-5.15-10.9-2.58M529.13 832.36a7.54 7.54 0 00-2.52 9.64 6.02 6.02 0 008.83 2.09 7.54 7.54 0 002.52-9.64 6.02 6.02 0 00-8.83-2.09M528.5 861.78a6.2 6.2 0 00-2.08 7.91 4.94 4.94 0 007.25 1.71 6.19 6.19 0 002.07-7.9 4.94 4.94 0 00-7.25-1.72M527.55 888.16a4.34 4.34 0 00-1.45 5.55c1 1.86 3.28 2.4 5.08 1.2a4.34 4.34 0 001.45-5.55 3.46 3.46 0 00-5.08-1.2M529.55 913a4.62 4.62 0 00-1.54 5.91 3.69 3.69 0 005.4 1.28 4.63 4.63 0 001.56-5.9 3.7 3.7 0 00-5.42-1.28M524.12 938.5a4.83 4.83 0 00-1.62 6.18 3.86 3.86 0 005.66 1.33c2-1.33 2.73-4.1 1.62-6.17a3.86 3.86 0 00-5.66-1.34M526.16 968.78a3.44 3.44 0 00-1.15 4.4c.8 1.47 2.6 1.9 4.03.95a3.44 3.44 0 001.15-4.4 2.75 2.75 0 00-4.03-.95M526.74 995.14a2.48 2.48 0 00-.83 3.17 1.98 1.98 0 002.9.69c1.04-.69 1.41-2.11.84-3.18a1.98 1.98 0 00-2.9-.68M529 1021.73a3.02 3.02 0 00-1.01 3.86 2.41 2.41 0 003.54.84 3.02 3.02 0 001.01-3.86 2.41 2.41 0 00-3.54-.84M822.96 309.35c-.29 1.13.31 2.23 1.34 2.47 1.03.24 2.1-.48 2.39-1.6.28-1.13-.32-2.23-1.34-2.47-1.03-.24-2.1.48-2.4 1.6M832.86 302.83c-.2.76.2 1.52.91 1.68.7.16 1.44-.33 1.63-1.1.2-.76-.2-1.52-.91-1.68-.7-.16-1.44.33-1.63 1.1M840.28 298.33c-.09.36.1.7.42.78.33.07.67-.15.76-.5.09-.36-.1-.7-.43-.78-.32-.08-.66.15-.75.5M730.78 402.92c-.14 2.29 1.48 4.15 3.6 4.16 2.14 0 3.99-1.86 4.13-4.16.14-2.3-1.48-4.15-3.6-4.16-2.14 0-3.99 1.86-4.13 4.16M747.2 383.63c-.14 2.16 1.38 3.91 3.39 3.91 2 0 3.74-1.74 3.87-3.9.13-2.16-1.38-3.9-3.39-3.91-2 0-3.74 1.74-3.87 3.9M765.56 364.88c-.13 2.05 1.32 3.72 3.23 3.73 1.9 0 3.56-1.67 3.69-3.72.12-2.06-1.32-3.73-3.23-3.73s-3.57 1.66-3.7 3.72M781.8 347.18c-.1 1.85 1.2 3.36 2.93 3.36 1.72 0 3.21-1.5 3.33-3.36.11-1.85-1.2-3.36-2.92-3.36-1.73 0-3.22 1.5-3.33 3.36M929.97 176.73a2.9 2.9 0 00-2.12 3.19 2.32 2.32 0 002.85 2.02 2.9 2.9 0 002.11-3.19 2.32 2.32 0 00-2.84-2.02M915 182.76a3.93 3.93 0 00-2.88 4.34 3.16 3.16 0 003.88 2.75 3.93 3.93 0 002.87-4.33 3.16 3.16 0 00-3.87-2.76M806.09 250.45a6.22 6.22 0 00-3.5 7.42 4.94 4.94 0 006.69 3.29 6.22 6.22 0 003.5-7.42 4.94 4.94 0 00-6.69-3.29M788.02 263.88a7.52 7.52 0 00-4.24 8.96 5.98 5.98 0 008.1 3.98 7.52 7.52 0 004.23-8.97 5.98 5.98 0 00-8.09-3.97M766.27 282.81a8.32 8.32 0 00-4.7 9.93 6.61 6.61 0 008.96 4.4 8.32 8.32 0 004.7-9.92 6.61 6.61 0 00-8.96-4.4M743.6 303.2a9.52 9.52 0 00-5.38 11.35 7.56 7.56 0 0010.25 5.03 9.52 9.52 0 005.36-11.35 7.56 7.56 0 00-10.24-5.03M723.88 323.7a9.97 9.97 0 00-5.62 11.88c1.41 4.74 6.22 7.1 10.73 5.28a9.97 9.97 0 005.62-11.89c-1.4-4.74-6.21-7.1-10.73-5.27M704.57 342.2c-4.98 2-7.76 7.88-6.2 13.1 1.55 5.23 6.85 7.83 11.83 5.82 4.98-2.02 7.75-7.89 6.2-13.11-1.56-5.23-6.86-7.83-11.83-5.82M685.42 362.15c-5.12 2.07-7.98 8.1-6.38 13.48 1.6 5.38 7.05 8.05 12.17 5.98 5.12-2.07 7.97-8.1 6.37-13.48-1.6-5.37-7.04-8.05-12.16-5.98M666.52 386.7c-4.93 2-7.67 7.8-6.14 12.97 1.54 5.17 6.78 7.74 11.7 5.75 4.93-2 7.67-7.8 6.14-12.97-1.54-5.17-6.78-7.74-11.7-5.75M647.63 409.82c-5.3 2.14-8.24 8.38-6.59 13.94 1.66 5.56 7.29 8.33 12.58 6.19 5.3-2.14 8.25-8.39 6.6-13.95-1.66-5.55-7.29-8.32-12.59-6.18M630.93 436c-5.45 2.2-8.5 8.63-6.79 14.35 1.7 5.73 7.5 8.58 12.96 6.37 5.45-2.2 8.49-8.63 6.78-14.35-1.7-5.73-7.5-8.58-12.95-6.37M614.1 460.85c-5.59 2.27-8.7 8.86-6.96 14.72 1.75 5.87 7.7 8.8 13.28 6.53 5.6-2.26 8.71-8.85 6.96-14.72-1.74-5.86-7.69-8.79-13.28-6.53M600.87 485.42c-5.45 2.2-8.5 8.63-6.79 14.35 1.7 5.72 7.5 8.57 12.96 6.37 5.45-2.2 8.49-8.63 6.78-14.36-1.7-5.72-7.5-8.57-12.95-6.36M586.14 511.56c-4.89 1.98-7.61 7.74-6.09 12.87 1.53 5.13 6.73 7.69 11.62 5.71 4.89-1.98 7.61-7.74 6.08-12.87-1.52-5.13-6.72-7.69-11.61-5.71M574.3 534.25c-5 2.02-7.8 7.93-6.24 13.2 1.57 5.25 6.9 7.87 11.91 5.85 5.01-2.03 7.8-7.94 6.24-13.2-1.57-5.26-6.9-7.88-11.9-5.85M562.5 558.68c-5.08 2.06-7.92 8.05-6.33 13.4 1.59 5.33 7 8 12.09 5.94 5.09-2.06 7.92-8.06 6.33-13.4-1.59-5.34-7-8-12.09-5.94M551.93 584.62c-4.73 1.92-7.37 7.5-5.9 12.46 1.48 4.97 6.52 7.45 11.25 5.53 4.73-1.91 7.37-7.5 5.9-12.46-1.48-4.97-6.52-7.44-11.25-5.53M542.63 610.84a9.74 9.74 0 00-5.49 11.62 7.74 7.74 0 0010.48 5.15 9.74 9.74 0 005.5-11.61 7.74 7.74 0 00-10.49-5.16M531.96 638.75a7.89 7.89 0 00-4.44 9.4 6.27 6.27 0 008.48 4.17 7.89 7.89 0 004.45-9.4 6.27 6.27 0 00-8.49-4.17M525.51 669.06a6.47 6.47 0 00-3.65 7.72 5.14 5.14 0 006.97 3.42 6.47 6.47 0 003.65-7.71 5.14 5.14 0 00-6.97-3.43M519.35 696.16a4.54 4.54 0 00-2.55 5.41 3.6 3.6 0 004.88 2.4 4.54 4.54 0 002.56-5.41 3.6 3.6 0 00-4.89-2.4M516.46 722.34a4.83 4.83 0 00-2.72 5.77 3.84 3.84 0 005.2 2.55 4.83 4.83 0 002.73-5.76 3.84 3.84 0 00-5.2-2.56M505.95 747.5a5.05 5.05 0 00-2.85 6.03 4.02 4.02 0 005.44 2.67 5.05 5.05 0 002.85-6.03 4.02 4.02 0 00-5.44-2.67M502.03 779.31a3.6 3.6 0 00-2.03 4.3 2.86 2.86 0 003.87 1.9 3.6 3.6 0 002.03-4.3 2.86 2.86 0 00-3.87-1.9M497.4 806.74a2.6 2.6 0 00-1.45 3.1 2.06 2.06 0 002.79 1.36 2.6 2.6 0 001.46-3.09 2.06 2.06 0 00-2.8-1.37M494.44 834.78a3.16 3.16 0 00-1.79 3.77 2.51 2.51 0 003.4 1.68 3.16 3.16 0 001.79-3.77 2.51 2.51 0 00-3.4-1.68M939.7 172.68c-.46 1.12 0 2.36 1.02 2.77 1.02.41 2.22-.16 2.68-1.28.46-1.12.01-2.36-1-2.77-1.03-.42-2.23.16-2.7 1.28M950.82 168.49c-.31.76 0 1.61.7 1.9.69.28 1.51-.11 1.83-.88.31-.76 0-1.61-.7-1.9-.69-.28-1.51.11-1.83.88M959.1 165.02c-.15.35 0 .74.32.87s.7-.05.84-.4c.15-.36 0-.75-.31-.88-.33-.13-.7.05-.85.4M822.72 239.46c-1 2.2-.18 4.69 1.85 5.55 2.02.87 4.48-.21 5.49-2.41 1-2.2.18-4.69-1.85-5.55-2.03-.87-4.48.21-5.49 2.41M844.9 222.58c-.94 2.06-.16 4.4 1.74 5.21 1.91.82 4.22-.2 5.17-2.27.95-2.06.17-4.4-1.74-5.21-1.9-.82-4.21.2-5.16 2.27M872.42 205.82c-.9 1.98-.16 4.2 1.65 4.98 1.82.77 4.02-.2 4.92-2.17.9-1.97.16-4.2-1.65-4.97-1.82-.77-4.02.2-4.92 2.16M892.36 195.77c-.75 1.8-.01 3.82 1.63 4.48 1.65.67 3.6-.25 4.35-2.06.74-1.81.01-3.82-1.63-4.5-1.65-.66-3.6.27-4.35 2.08M777.82 1227.16c.15.5.65.77 1.14.58.48-.18.76-.75.62-1.26a.85.85 0 00-1.14-.58c-.48.18-.76.75-.62 1.26M788.93 1248.67c.3 1.1 1.4 1.67 2.46 1.27a2.3 2.3 0 001.34-2.73 1.83 1.83 0 00-2.46-1.27 2.3 2.3 0 00-1.34 2.73M799.54 1267.97a2.65 2.65 0 003.55 1.84 3.33 3.33 0 001.95-3.95 2.65 2.65 0 00-3.56-1.83 3.33 3.33 0 00-1.94 3.94M809.93 1286.92a3.42 3.42 0 004.58 2.36 4.3 4.3 0 002.5-5.08 3.41 3.41 0 00-4.57-2.36 4.3 4.3 0 00-2.5 5.08M823.8 1304.97c.55 2 2.56 3.04 4.47 2.3a4.2 4.2 0 002.44-4.96 3.34 3.34 0 00-4.47-2.3 4.2 4.2 0 00-2.45 4.96M837.9 1325.15a4.1 4.1 0 005.5 2.83 5.15 5.15 0 003-6.1 4.1 4.1 0 00-5.49-2.83 5.15 5.15 0 00-3 6.1M849.9 1342.35a5.04 5.04 0 006.76 3.48 6.33 6.33 0 003.7-7.5 5.04 5.04 0 00-6.76-3.48 6.33 6.33 0 00-3.7 7.5M862.43 1359.37a6.14 6.14 0 008.24 4.25 7.72 7.72 0 004.5-9.14 6.14 6.14 0 00-8.24-4.24 7.72 7.72 0 00-4.5 9.13M878.47 1376.47a5.78 5.78 0 007.75 4 7.26 7.26 0 004.23-8.6 5.78 5.78 0 00-7.74-4 7.26 7.26 0 00-4.24 8.6M892.18 1392.4c1.25 4.48 5.72 6.78 9.98 5.15a9.36 9.36 0 005.46-11.08c-1.25-4.48-5.72-6.78-9.98-5.15a9.36 9.36 0 00-5.46 11.08M909.4 1408.95c1.35 4.81 6.16 7.3 10.74 5.53 4.59-1.76 7.22-7.09 5.87-11.9-1.34-4.83-6.15-7.3-10.73-5.55-4.59 1.76-7.21 7.1-5.87 11.92M929.25 1423.35c1.38 4.96 6.33 7.52 11.05 5.7 4.72-1.8 7.43-7.3 6.05-12.26-1.39-4.96-6.33-7.51-11.05-5.7-4.73 1.81-7.43 7.3-6.05 12.26M948.02 1437.93c1.42 5.08 6.5 7.7 11.33 5.84 4.84-1.85 7.62-7.48 6.2-12.57s-6.5-7.7-11.33-5.85c-4.84 1.86-7.62 7.5-6.2 12.58M966.81 1449.18c1.39 4.96 6.33 7.51 11.05 5.7 4.72-1.8 7.43-7.3 6.04-12.26-1.38-4.96-6.33-7.51-11.05-5.7-4.72 1.81-7.42 7.3-6.04 12.26M986.77 1461.76c1.24 4.45 5.67 6.74 9.9 5.11a9.29 9.29 0 005.42-11c-1.24-4.44-5.67-6.73-9.9-5.1a9.29 9.29 0 00-5.42 10.99M1004.15 1471.8c1.27 4.56 5.82 6.9 10.16 5.24 4.34-1.67 6.82-6.71 5.55-11.27-1.27-4.56-5.82-6.9-10.15-5.24-4.34 1.66-6.83 6.7-5.56 11.27M1022.94 1481.73c1.3 4.63 5.9 7.01 10.31 5.32 4.4-1.69 6.93-6.81 5.64-11.44s-5.9-7.01-10.31-5.32c-4.4 1.69-6.93 6.81-5.64 11.44M1043.03 1490.47c1.2 4.3 5.5 6.52 9.6 4.95a9 9 0 005.24-10.65c-1.2-4.3-5.5-6.52-9.6-4.95a9 9 0 00-5.24 10.65M1063.44 1498a6.67 6.67 0 008.93 4.62c3.82-1.47 6.01-5.9 4.9-9.92a6.67 6.67 0 00-8.95-4.61 8.38 8.38 0 00-4.88 9.92M1085.1 1506.75a5.4 5.4 0 007.23 3.74 6.79 6.79 0 003.96-8.04 5.4 5.4 0 00-7.24-3.73 6.79 6.79 0 00-3.96 8.03M1109 1511.5a4.43 4.43 0 005.93 3.06c2.54-.98 4-3.93 3.25-6.6a4.43 4.43 0 00-5.94-3.06c-2.54.97-3.99 3.92-3.25 6.6M1130.33 1516.09a3.1 3.1 0 004.16 2.15 3.9 3.9 0 002.28-4.62 3.1 3.1 0 00-4.17-2.15 3.9 3.9 0 00-2.27 4.62M1151.16 1517.7c.55 1.99 2.54 3.02 4.43 2.29a4.16 4.16 0 002.43-4.93 3.31 3.31 0 00-4.44-2.29 4.16 4.16 0 00-2.42 4.93M1170.62 1526.41a3.46 3.46 0 004.64 2.4 4.35 4.35 0 002.54-5.15 3.46 3.46 0 00-4.64-2.4 4.35 4.35 0 00-2.54 5.15M1195.9 1528.74a2.47 2.47 0 003.3 1.7 3.1 3.1 0 001.81-3.66 2.46 2.46 0 00-3.3-1.7 3.1 3.1 0 00-1.8 3.66M1217.61 1531.9a1.78 1.78 0 002.38 1.23 2.23 2.23 0 001.3-2.64 1.78 1.78 0 00-2.38-1.23 2.23 2.23 0 00-1.3 2.64M1239.93 1533.51a2.17 2.17 0 002.9 1.5 2.72 2.72 0 001.6-3.22 2.17 2.17 0 00-2.9-1.5 2.72 2.72 0 00-1.6 3.22M877.85 1296.02c.18.4.64.55 1.03.33a.9.9 0 00.37-1.13.72.72 0 00-1.03-.32.9.9 0 00-.37 1.12M889.84 1312.22c.4.86 1.4 1.18 2.23.7.83-.48 1.2-1.58.8-2.44a1.55 1.55 0 00-2.23-.7 1.95 1.95 0 00-.8 2.44M901.15 1326.65a2.24 2.24 0 003.22 1.01 2.82 2.82 0 001.15-3.53 2.24 2.24 0 00-3.22-1.01 2.82 2.82 0 00-1.15 3.53M912.22 1340.82a2.88 2.88 0 004.15 1.3 3.63 3.63 0 001.49-4.54 2.88 2.88 0 00-4.15-1.3 3.63 3.63 0 00-1.49 4.54M926.11 1353.77a2.81 2.81 0 004.05 1.27 3.55 3.55 0 001.46-4.44 2.82 2.82 0 00-4.06-1.28 3.55 3.55 0 00-1.45 4.45M940.47 1368.43a3.45 3.45 0 004.98 1.56 4.35 4.35 0 001.78-5.45 3.45 3.45 0 00-4.97-1.57 4.35 4.35 0 00-1.79 5.46M952.69 1380.93a4.25 4.25 0 006.12 1.93 5.35 5.35 0 002.2-6.71 4.25 4.25 0 00-6.13-1.93 5.35 5.35 0 00-2.2 6.71M965.33 1393.22a5.18 5.18 0 007.46 2.34c2.8-1.61 3.99-5.27 2.67-8.18a5.18 5.18 0 00-7.46-2.34 6.52 6.52 0 00-2.67 8.18M980.94 1405.06a4.87 4.87 0 007.01 2.2 6.14 6.14 0 002.52-7.69 4.87 4.87 0 00-7.02-2.2 6.14 6.14 0 00-2.51 7.7M994.44 1416.28a6.28 6.28 0 009.04 2.84 7.9 7.9 0 003.24-9.91 6.28 6.28 0 00-9.04-2.85 7.91 7.91 0 00-3.24 9.92M1010.98 1427.5a6.75 6.75 0 009.72 3.06 8.5 8.5 0 003.49-10.66 6.75 6.75 0 00-9.72-3.06 8.5 8.5 0 00-3.49 10.66M1029.46 1436.6a6.95 6.95 0 0010.01 3.14 8.76 8.76 0 003.6-10.97 6.95 6.95 0 00-10.02-3.15 8.76 8.76 0 00-3.59 10.98M1047.06 1445.98a7.13 7.13 0 0010.27 3.22 8.98 8.98 0 003.68-11.25 7.13 7.13 0 00-10.27-3.23 8.98 8.98 0 00-3.68 11.26M1064.27 1452.61a6.95 6.95 0 0010.01 3.15 8.76 8.76 0 003.6-10.98 6.95 6.95 0 00-10.02-3.14 8.76 8.76 0 00-3.59 10.97M1082.63 1460.18a6.23 6.23 0 008.97 2.82 7.85 7.85 0 003.22-9.84 6.23 6.23 0 00-8.97-2.82 7.85 7.85 0 00-3.22 9.84M1098.5 1466a6.39 6.39 0 009.2 2.9 8.05 8.05 0 003.3-10.09 6.39 6.39 0 00-9.2-2.89 8.05 8.05 0 00-3.3 10.09M1115.55 1471.56a6.48 6.48 0 009.34 2.93c3.5-2.02 5-6.6 3.35-10.24a6.49 6.49 0 00-9.34-2.94c-3.5 2.02-5 6.6-3.35 10.25M1133.55 1475.93a6.03 6.03 0 008.69 2.73 7.6 7.6 0 003.11-9.52 6.03 6.03 0 00-8.69-2.74 7.6 7.6 0 00-3.11 9.53M1151.66 1479.27a5.62 5.62 0 008.1 2.55 7.08 7.08 0 002.9-8.88 5.62 5.62 0 00-8.1-2.54 7.08 7.08 0 00-2.9 8.87M1170.98 1483.44a4.55 4.55 0 006.56 2.06 5.74 5.74 0 002.35-7.2 4.55 4.55 0 00-6.56-2.05 5.74 5.74 0 00-2.35 7.19M1191.7 1483.97a3.74 3.74 0 005.38 1.7 4.7 4.7 0 001.93-5.9 3.74 3.74 0 00-5.38-1.7 4.7 4.7 0 00-1.93 5.9M1210.24 1484.76c.66 1.47 2.35 2 3.77 1.18a3.3 3.3 0 001.35-4.14 2.62 2.62 0 00-3.77-1.18 3.3 3.3 0 00-1.35 4.14M1227.98 1483.14a2.8 2.8 0 004.02 1.27 3.52 3.52 0 001.44-4.41 2.79 2.79 0 00-4.01-1.27 3.52 3.52 0 00-1.45 4.41M1245.45 1487.59a2.92 2.92 0 004.2 1.32 3.68 3.68 0 001.51-4.61 2.92 2.92 0 00-4.2-1.32 3.68 3.68 0 00-1.5 4.6M1267.04 1485.94a2.08 2.08 0 002.99.94 2.62 2.62 0 001.07-3.28 2.08 2.08 0 00-2.99-.94 2.62 2.62 0 00-1.07 3.28M1285.71 1485.49a1.5 1.5 0 002.16.67 1.89 1.89 0 00.78-2.36 1.5 1.5 0 00-2.16-.68 1.89 1.89 0 00-.78 2.37M1304.72 1483.66a1.83 1.83 0 002.63.83 2.3 2.3 0 00.94-2.88 1.83 1.83 0 00-2.63-.83 2.3 2.3 0 00-.94 2.88" fill="#793000 "/>
  </g>
</svg>
